<?xml version="1.0" encoding="iso-8859-1"?>
<!-- Generator: Adobe Illustrator 17.1.0, SVG Export Plug-In . SVG Version: 6.00 Build 0)  -->
<!DOCTYPE svg PUBLIC "-//W3C//DTD SVG 1.1//EN" "http://www.w3.org/Graphics/SVG/1.1/DTD/svg11.dtd">
<svg version="1.1" id="Capa_1" xmlns="http://www.w3.org/2000/svg" xmlns:xlink="http://www.w3.org/1999/xlink" x="0px" y="0px"
	 viewBox="0 0 380.373 380.373" style="enable-background:new 0 0 380.373 380.373;" xml:space="preserve">
<path d="M375.805,343.834l-39.323-87.318c-5.785-12.845-20.208-22.168-34.295-22.168h-45.139
	c16.185-26.188,48.333-82.788,48.333-119.154C305.38,51.676,253.705,0,190.187,0S74.993,51.676,74.993,115.193
	c0,36.526,31.929,93.026,48.005,119.154H78.187c-14.087,0-28.51,9.323-34.295,22.168L4.568,343.834
	c-3.885,8.627-3.409,17.76,1.308,25.058c4.717,7.297,12.849,11.481,22.31,11.481h324c9.461,0,17.593-4.185,22.31-11.481
	C379.213,361.594,379.69,352.461,375.805,343.834z M190.187,63.321c28.603,0,51.873,23.27,51.873,51.872
	s-23.27,51.872-51.873,51.872s-51.874-23.27-51.874-51.872S161.583,63.321,190.187,63.321z M42.26,345.373l33.467-74.313
	c0.48-0.646,1.861-1.539,2.649-1.712h67.842c5.69,7.951,11.292,15.325,16.583,21.797c19.366,23.69,24.986,23.69,27.385,23.69
	c2.504,0,7.713,0,27.011-23.697c5.288-6.494,10.882-13.864,16.561-21.79h68.239c0.788,0.173,2.169,1.065,2.649,1.713l33.466,74.313
	H42.26z"/>
<g>
</g>
<g>
</g>
<g>
</g>
<g>
</g>
<g>
</g>
<g>
</g>
<g>
</g>
<g>
</g>
<g>
</g>
<g>
</g>
<g>
</g>
<g>
</g>
<g>
</g>
<g>
</g>
<g>
</g>
</svg>
